<svg width="343" height="84" viewBox="0 0 343 84" fill="none" xmlns="http://www.w3.org/2000/svg">
<path d="M111.488 60V23.6364H125.834C128.58 23.6364 130.924 24.1276 132.866 25.1101C134.819 26.0807 136.304 27.4598 137.322 29.2472C138.352 31.0227 138.867 33.112 138.867 35.5149C138.867 37.9297 138.346 40.0071 137.304 41.7472C136.263 43.4754 134.754 44.8011 132.777 45.7244C130.812 46.6477 128.432 47.1094 125.639 47.1094H116.033V40.9304H124.396C125.864 40.9304 127.083 40.7292 128.054 40.3267C129.024 39.9242 129.746 39.3205 130.22 38.5156C130.705 37.7107 130.948 36.7105 130.948 35.5149C130.948 34.3075 130.705 33.2895 130.22 32.4609C129.746 31.6323 129.018 31.005 128.036 30.5788C127.065 30.1409 125.84 29.9219 124.361 29.9219H119.176V60H111.488ZM131.125 43.4517L140.163 60H131.676L122.834 43.4517H131.125ZM156.148 60.5327C153.342 60.5327 150.927 59.9645 148.903 58.8281C146.891 57.6799 145.34 56.0582 144.251 53.9631C143.162 51.8561 142.618 49.3643 142.618 46.4879C142.618 43.6825 143.162 41.2204 144.251 39.1016C145.34 36.9827 146.873 35.3314 148.85 34.1477C150.839 32.964 153.171 32.3722 155.846 32.3722C157.645 32.3722 159.32 32.6622 160.871 33.2422C162.433 33.8104 163.794 34.6686 164.954 35.8168C166.126 36.965 167.038 38.4091 167.689 40.1491C168.34 41.8774 168.665 43.9015 168.665 46.2216V48.299H145.636V43.6115H161.545C161.545 42.5225 161.309 41.5578 160.835 40.7173C160.362 39.8769 159.705 39.2199 158.864 38.7464C158.036 38.2611 157.071 38.0185 155.97 38.0185C154.822 38.0185 153.804 38.2848 152.916 38.8175C152.04 39.3383 151.354 40.0426 150.856 40.9304C150.359 41.8063 150.105 42.7829 150.093 43.8601V48.3168C150.093 49.6662 150.342 50.8321 150.839 51.8146C151.348 52.7971 152.064 53.5547 152.987 54.0874C153.91 54.62 155.005 54.8864 156.272 54.8864C157.112 54.8864 157.882 54.768 158.58 54.5312C159.279 54.2945 159.876 53.9394 160.373 53.4659C160.871 52.9924 161.249 52.4124 161.51 51.7259L168.506 52.1875C168.15 53.8684 167.422 55.3362 166.322 56.5909C165.233 57.8338 163.824 58.8045 162.096 59.5028C160.379 60.1894 158.397 60.5327 156.148 60.5327ZM181.378 60.5149C179.638 60.5149 178.088 60.2131 176.726 59.6094C175.365 58.9938 174.288 58.0883 173.495 56.8928C172.714 55.6854 172.323 54.1821 172.323 52.3828C172.323 50.8677 172.601 49.5952 173.158 48.5653C173.714 47.5355 174.472 46.7069 175.43 46.0795C176.389 45.4522 177.478 44.9787 178.697 44.6591C179.928 44.3395 181.219 44.1146 182.568 43.9844C184.154 43.8187 185.433 43.6648 186.403 43.5227C187.374 43.3688 188.078 43.1439 188.516 42.848C188.954 42.5521 189.173 42.1141 189.173 41.5341V41.4276C189.173 40.303 188.818 39.433 188.108 38.8175C187.409 38.2019 186.415 37.8942 185.125 37.8942C183.764 37.8942 182.681 38.196 181.876 38.7997C181.071 39.3916 180.538 40.1373 180.278 41.0369L173.282 40.4688C173.637 38.8116 174.335 37.3793 175.377 36.1719C176.419 34.9527 177.762 34.0175 179.408 33.3665C181.065 32.7036 182.982 32.3722 185.16 32.3722C186.676 32.3722 188.126 32.5497 189.511 32.9048C190.907 33.2599 192.144 33.8104 193.222 34.5561C194.311 35.3018 195.169 36.2607 195.796 37.4325C196.423 38.5926 196.737 39.9834 196.737 41.6051V60H189.564V56.218H189.351C188.913 57.0703 188.327 57.822 187.593 58.473C186.859 59.1122 185.977 59.6153 184.947 59.9822C183.918 60.3374 182.728 60.5149 181.378 60.5149ZM183.545 55.2947C184.657 55.2947 185.64 55.0758 186.492 54.6378C187.344 54.188 188.013 53.5843 188.498 52.8267C188.984 52.0691 189.226 51.2109 189.226 50.2521V47.358C188.99 47.5118 188.664 47.6539 188.25 47.7841C187.847 47.9025 187.392 48.0149 186.883 48.1214C186.374 48.2161 185.865 48.3049 185.356 48.3878C184.847 48.4588 184.385 48.5239 183.971 48.5831C183.083 48.7133 182.308 48.9205 181.645 49.2045C180.982 49.4886 180.467 49.8733 180.1 50.3587C179.733 50.8321 179.55 51.424 179.55 52.1342C179.55 53.1641 179.922 53.9512 180.668 54.4957C181.426 55.0284 182.385 55.2947 183.545 55.2947ZM214.928 60.5327C212.134 60.5327 209.731 59.9408 207.719 58.7571C205.719 57.5616 204.18 55.9044 203.103 53.7855C202.037 51.6667 201.505 49.2282 201.505 46.4702C201.505 43.6766 202.043 41.2263 203.12 39.1193C204.209 37.0005 205.754 35.3492 207.755 34.1655C209.755 32.9699 212.134 32.3722 214.892 32.3722C217.272 32.3722 219.355 32.8042 221.142 33.6683C222.93 34.5324 224.344 35.7457 225.386 37.3082C226.428 38.8707 227.002 40.7055 227.108 42.8125H219.97C219.769 41.4512 219.237 40.3563 218.372 39.5277C217.52 38.6873 216.402 38.267 215.017 38.267C213.845 38.267 212.821 38.5866 211.945 39.2259C211.081 39.8532 210.406 40.7706 209.921 41.978C209.435 43.1854 209.193 44.6473 209.193 46.3636C209.193 48.1037 209.429 49.5833 209.903 50.8026C210.388 52.0218 211.069 52.951 211.945 53.5902C212.821 54.2294 213.845 54.549 215.017 54.549C215.881 54.549 216.656 54.3714 217.343 54.0163C218.041 53.6612 218.615 53.1463 219.065 52.4716C219.527 51.785 219.828 50.9624 219.97 50.0036H227.108C226.99 52.0869 226.422 53.9216 225.404 55.5078C224.398 57.0821 223.007 58.3132 221.231 59.201C219.456 60.0888 217.354 60.5327 214.928 60.5327ZM246.457 32.7273V38.4091H230.033V32.7273H246.457ZM233.762 26.1932H241.326V51.6193C241.326 52.3177 241.433 52.8622 241.646 53.2528C241.859 53.6316 242.155 53.898 242.533 54.0518C242.924 54.2057 243.374 54.2827 243.883 54.2827C244.238 54.2827 244.593 54.2531 244.948 54.1939C245.303 54.1229 245.576 54.0696 245.765 54.0341L246.955 59.6626C246.576 59.781 246.043 59.9171 245.357 60.071C244.67 60.2367 243.836 60.3374 242.853 60.3729C241.03 60.4439 239.432 60.2012 238.059 59.6449C236.698 59.0885 235.638 58.2244 234.881 57.0526C234.123 55.8807 233.75 54.401 233.762 52.6136V26.1932ZM255.806 60.4616C254.634 60.4616 253.628 60.0473 252.787 59.2188C251.959 58.3783 251.544 57.3722 251.544 56.2003C251.544 55.0402 251.959 54.0459 252.787 53.2173C253.628 52.3887 254.634 51.9744 255.806 51.9744C256.942 51.9744 257.937 52.3887 258.789 53.2173C259.641 54.0459 260.067 55.0402 260.067 56.2003C260.067 56.9815 259.866 57.6977 259.464 58.3487C259.073 58.9879 258.558 59.5028 257.919 59.8935C257.28 60.2723 256.575 60.4616 255.806 60.4616ZM273.841 23.6364V60H266.277V23.6364H273.841ZM287.677 60.5149C285.937 60.5149 284.387 60.2131 283.025 59.6094C281.664 58.9938 280.587 58.0883 279.794 56.8928C279.013 55.6854 278.622 54.1821 278.622 52.3828C278.622 50.8677 278.9 49.5952 279.456 48.5653C280.013 47.5355 280.77 46.7069 281.729 46.0795C282.688 45.4522 283.777 44.9787 284.996 44.6591C286.227 44.3395 287.517 44.1146 288.867 43.9844C290.453 43.8187 291.732 43.6648 292.702 43.5227C293.673 43.3688 294.377 43.1439 294.815 42.848C295.253 42.5521 295.472 42.1141 295.472 41.5341V41.4276C295.472 40.303 295.117 39.433 294.407 38.8175C293.708 38.2019 292.714 37.8942 291.424 37.8942C290.062 37.8942 288.979 38.196 288.174 38.7997C287.37 39.3916 286.837 40.1373 286.576 41.0369L279.581 40.4688C279.936 38.8116 280.634 37.3793 281.676 36.1719C282.718 34.9527 284.061 34.0175 285.706 33.3665C287.364 32.7036 289.281 32.3722 291.459 32.3722C292.974 32.3722 294.424 32.5497 295.809 32.9048C297.206 33.2599 298.443 33.8104 299.52 34.5561C300.609 35.3018 301.468 36.2607 302.095 37.4325C302.722 38.5926 303.036 39.9834 303.036 41.6051V60H295.863V56.218H295.65C295.212 57.0703 294.626 57.822 293.892 58.473C293.158 59.1122 292.276 59.6153 291.246 59.9822C290.216 60.3374 289.027 60.5149 287.677 60.5149ZM289.843 55.2947C290.956 55.2947 291.939 55.0758 292.791 54.6378C293.643 54.188 294.312 53.5843 294.797 52.8267C295.283 52.0691 295.525 51.2109 295.525 50.2521V47.358C295.289 47.5118 294.963 47.6539 294.549 47.7841C294.146 47.9025 293.691 48.0149 293.182 48.1214C292.673 48.2161 292.164 48.3049 291.655 48.3878C291.146 48.4588 290.684 48.5239 290.27 48.5831C289.382 48.7133 288.607 48.9205 287.944 49.2045C287.281 49.4886 286.766 49.8733 286.399 50.3587C286.032 50.8321 285.848 51.424 285.848 52.1342C285.848 53.1641 286.221 53.9512 286.967 54.4957C287.725 55.0284 288.683 55.2947 289.843 55.2947ZM309.046 60V23.6364H316.61V37.3082H316.841C317.172 36.5743 317.652 35.8286 318.279 35.071C318.918 34.3016 319.747 33.6624 320.765 33.1534C321.795 32.6326 323.073 32.3722 324.6 32.3722C326.589 32.3722 328.424 32.893 330.104 33.9347C331.785 34.9645 333.129 36.5211 334.135 38.6044C335.141 40.6759 335.644 43.2741 335.644 46.3991C335.644 49.4413 335.153 52.0099 334.171 54.1051C333.2 56.1884 331.874 57.7687 330.193 58.8459C328.524 59.9112 326.654 60.4439 324.582 60.4439C323.115 60.4439 321.866 60.2012 320.836 59.7159C319.818 59.2306 318.984 58.621 318.332 57.8871C317.681 57.1413 317.184 56.3897 316.841 55.6321H316.504V60H309.046ZM316.45 46.3636C316.45 47.9853 316.675 49.3999 317.125 50.6072C317.575 51.8146 318.226 52.7557 319.078 53.4304C319.93 54.0933 320.966 54.4247 322.185 54.4247C323.417 54.4247 324.458 54.0874 325.31 53.4126C326.163 52.7261 326.808 51.7791 327.246 50.5717C327.696 49.3525 327.921 47.9498 327.921 46.3636C327.921 44.7893 327.702 43.4044 327.264 42.2088C326.826 41.0133 326.18 40.0781 325.328 39.4034C324.476 38.7287 323.428 38.3913 322.185 38.3913C320.954 38.3913 319.913 38.7169 319.06 39.3679C318.22 40.0189 317.575 40.9422 317.125 42.1378C316.675 43.3333 316.45 44.742 316.45 46.3636Z" fill="#193552"/>
<circle cx="42" cy="42" r="42" fill="#2E4DFE"/>
</svg>
